<svg width="55" height="50" viewBox="0 0 55 50" fill="none" xmlns="http://www.w3.org/2000/svg">
<path d="M34.8892 1.61411C30.297 -0.538035 24.703 -0.53804 20.1108 1.61411L3.08441 9.59352C-1.02812 11.5209 -1.02815 16.4791 3.0844 18.4065L20.1108 26.3859C24.703 28.538 30.297 28.538 34.8892 26.3859L51.9156 18.4065C56.0281 16.4791 56.0281 11.5209 51.9156 9.59352L34.8892 1.61411Z" fill="#00B6FF"/>
<path d="M2.04534 33C-0.992682 35.1126 -0.646342 39.1655 3.0844 40.8357L20.1108 48.4581C24.703 50.514 30.297 50.514 34.8892 48.4581L51.9156 40.8357C55.6463 39.1655 55.9927 35.1126 52.9547 33L36.9615 40.1599C31.0824 42.7919 23.9176 42.7919 18.0384 40.1599L2.04534 33Z" fill="#0050FF"/>
<path d="M1.58564 22C-0.945784 24.1 -0.446211 27.6708 3.0844 29.1902L20.1108 36.5178C24.703 38.4941 30.297 38.4941 34.8892 36.5178L51.9156 29.1902C55.4462 27.6708 55.9458 24.1 53.4144 22L36.9615 29.0807C31.0824 31.6109 23.9176 31.6109 18.0384 29.0807L1.58564 22Z" fill="#FFAE00"/>
</svg>
