<svg width="24" height="24" viewBox="0 0 24 24" fill="none" xmlns="http://www.w3.org/2000/svg">
<path d="M5.07175 7.99995C5.80944 6.72223 6.88609 5.6734 8.18268 4.96941C9.47927 4.26542 10.9453 3.9337 12.4186 4.01091C13.892 4.08813 15.3153 4.57128 16.5312 5.40694C17.7471 6.24261 18.7082 7.39823 19.3083 8.74606" stroke="white" stroke-width="1.5" stroke-linecap="round"/>
<path d="M3.23177 5.51531L3.96119 8.67485C4.08542 9.21298 4.62237 9.54851 5.1605 9.42428L8.32004 8.69487" stroke="white" stroke-width="1.5" stroke-linecap="round"/>
<path d="M18.9282 15.9999C18.1905 17.2776 17.1139 18.3264 15.8173 19.0304C14.5207 19.7344 13.0547 20.0661 11.5813 19.9889C10.108 19.9117 8.68467 19.4285 7.46877 18.5929C6.25287 17.7572 5.29175 16.6016 4.69166 15.2538" stroke="white" stroke-width="1.5" stroke-linecap="round"/>
<path d="M20.7682 18.4845L20.0388 15.325C19.9145 14.7868 19.3776 14.4513 18.8395 14.5755L15.6799 15.305" stroke="white" stroke-width="1.5" stroke-linecap="round"/>
</svg>
