<svg width="19" height="19" viewBox="0 0 19 19" fill="none" xmlns="http://www.w3.org/2000/svg">
<path fill-rule="evenodd" clip-rule="evenodd" d="M0.25 9.25C0.25 4.27944 4.27944 0.25 9.25 0.25C14.2206 0.25 18.25 4.27944 18.25 9.25C18.25 14.2206 14.2206 18.25 9.25 18.25C4.27944 18.25 0.25 14.2206 0.25 9.25ZM10.4186 8.41278C10.4186 7.99857 10.0829 7.66278 9.66865 7.66278H7.99423C7.58002 7.66278 7.24423 7.99857 7.24423 8.41278C7.24423 8.82699 7.58002 9.16278 7.99423 9.16278H8.91865V13.436C8.91865 13.8502 9.25444 14.186 9.66865 14.186C10.0829 14.186 10.4186 13.8502 10.4186 13.436V8.41278ZM10.4186 5.06394C10.4186 4.64973 10.0829 4.31394 9.66865 4.31394C9.25444 4.31394 8.91865 4.64973 8.91865 5.06394V5.90115C8.91865 6.31536 9.25444 6.65115 9.66865 6.65115C10.0829 6.65115 10.4186 6.31536 10.4186 5.90115V5.06394Z" fill="#898989"/>
</svg>
